<svg xmlns="http://www.w3.org/2000/svg" xmlns:xlink="http://www.w3.org/1999/xlink" width="640" height="640" preserveAspectRatio="xMidYMid meet" version="1.1" viewBox="0 0 640 640"><defs><path id="d18JgoAbB" d="M425.97 699.31C257.26 645.66 253.76 544.71 151.93 483.69C103 454.36 23.06 452.95 -24.97 465.26"/><path id="hv37MiaLt" d="M425.97 699.31C257.26 645.66 253.76 544.71 151.93 483.69C103 454.36 23.06 452.95 -24.97 465.26"/><path id="c2JEQr1Ucz" d="M716.96 599.47C716.96 599.47 626.42 614.22 542.8 611.26C471.21 608.73 373.34 564.99 312.49 558.42C230.46 549.55 162.66 594.78 13.17 562.17C-33.66 551.95 -92.14 515.96 -92.14 515.96"/><path id="b3iFLpRVVQ" d="M716.96 599.47C716.96 599.47 626.42 614.22 542.8 611.26C471.21 608.73 373.34 564.99 312.49 558.42C230.46 549.55 162.66 594.78 13.17 562.17C-33.66 551.95 -92.14 515.96 -92.14 515.96"/><path id="aJlz38RxZ" d="M-91.08 482.47C-91.41 493.67 -93.1 549.68 -96.14 650.5C-15.06 653.37 633.56 676.34 714.64 679.21C715.41 653.88 715.83 639.81 715.92 636.99C680.43 651.48 622.43 671.59 541.15 668.71C318.24 660.82 230.31 499.67 83.43 467.17C9.37 451.45 -44.34 477.47 -91.08 482.47Z"/><linearGradient id="gradientc3h7mOmGo" x1="332.81" x2="291.03" y1="543.98" y2="617.22" gradientUnits="userSpaceOnUse"><stop style="stop-color:#000;stop-opacity:1" offset="0%"/><stop style="stop-color:#001d99;stop-opacity:0" offset="100%"/></linearGradient><path id="d1WS2M95J2" d="M-91.08 482.47C-91.41 493.67 -93.1 549.68 -96.14 650.5C-15.06 653.37 633.56 676.34 714.64 679.21C715.41 653.88 715.83 639.81 715.92 636.99C680.43 651.48 622.43 671.59 541.15 668.71C318.24 660.82 230.31 499.67 83.43 467.17C9.37 451.45 -44.34 477.47 -91.08 482.47Z"/><path id="a4ZUGG0qd" d="M716.19 623.34C685.84 622.27 611.71 619.64 556.55 603.37C506.12 588.49 479.23 573.81 443.77 566.29C383.63 553.51 321.48 589.32 227.16 585.23C151.6 581.99 106.07 563.43 80.65 553.7C31.87 531.27 -56.54 478.44 -90.1 444.44"/><path id="a28YzMQ9yC" d="M716.19 623.34C685.84 622.27 611.71 619.64 556.55 603.37C506.12 588.49 479.23 573.81 443.77 566.29C383.63 553.51 321.48 589.32 227.16 585.23C151.6 581.99 106.07 563.43 80.65 553.7C31.87 531.27 -56.54 478.44 -90.1 444.44"/><path id="c3dNdOiGQ" d="M227.24 585.23C151.68 581.99 106.15 563.43 80.73 553.7C31.95 531.27 -56.46 478.44 -90.02 444.44C-90.43 458.18 -92.5 526.9 -96.23 650.59C-15.15 653.46 633.47 676.43 714.55 679.3C715.53 646.76 716.08 628.68 716.19 625.07C685.87 623.99 615.83 622.41 543.16 599.13C506.1 587.26 476.48 573.35 441.03 565.8C384.09 553.44 321.56 589.29 227.24 585.23Z"/><linearGradient id="gradienta7H0l2NSU" x1="313.14" x2="311.35" y1="532.8" y2="592.29" gradientUnits="userSpaceOnUse"><stop style="stop-color:#fff;stop-opacity:1" offset="0%"/><stop style="stop-color:#0a19a3;stop-opacity:.5" offset="100%"/></linearGradient><path id="bbU9BGT58" d="M227.24 585.23C151.68 581.99 106.15 563.43 80.73 553.7C31.95 531.27 -56.46 478.44 -90.02 444.44C-90.43 458.18 -92.5 526.9 -96.23 650.59C-15.15 653.46 633.47 676.43 714.55 679.3C715.53 646.76 716.08 628.68 716.19 625.07C685.87 623.99 615.83 622.41 543.16 599.13C506.1 587.26 476.48 573.35 441.03 565.8C384.09 553.44 321.56 589.29 227.24 585.23Z"/><path id="eCZfCJ1e3" d="M5.73 506.51C5.72 506.72 5.55 506.89 5.34 506.88C5.13 506.88 4.97 506.7 4.98 506.48C4.98 506.27 5.16 506.1 5.36 506.11C5.57 506.12 5.74 506.29 5.73 506.51Z"/><path id="b12zBJBdkt" d="M5.73 506.51C5.72 506.72 5.55 506.89 5.34 506.88C5.13 506.88 4.97 506.7 4.98 506.48C4.98 506.27 5.16 506.1 5.36 506.11C5.57 506.12 5.74 506.29 5.73 506.51Z"/><path id="g28BNExOk4" d="M-3.28 514.03C-3.29 514.25 -3.46 514.42 -3.67 514.41C-3.88 514.4 -4.04 514.22 -4.03 514.01C-4.03 513.79 -3.85 513.63 -3.65 513.63C-3.44 513.64 -3.27 513.82 -3.28 514.03Z"/><path id="cRIALqWOR" d="M-3.28 514.03C-3.29 514.25 -3.46 514.42 -3.67 514.41C-3.88 514.4 -4.04 514.22 -4.03 514.01C-4.03 513.79 -3.85 513.63 -3.65 513.63C-3.44 513.64 -3.27 513.82 -3.28 514.03Z"/><path id="bSZtNpcRQ" d="M600.35 242.73C600.35 242.99 600.57 243.2 600.83 243.2C601.09 243.2 601.3 242.99 601.3 242.73C601.3 242.47 601.09 242.26 600.83 242.26C600.57 242.26 600.35 242.47 600.35 242.73Z"/><path id="b8mB5Ng4m" d="M600.35 242.73C600.35 242.99 600.57 243.2 600.83 243.2C601.09 243.2 601.3 242.99 601.3 242.73C601.3 242.47 601.09 242.26 600.83 242.26C600.57 242.26 600.35 242.47 600.35 242.73Z"/><path id="cGgCS3Ls2" d="M-208.44 376.11C-208.45 376.33 -208.62 376.49 -208.83 376.49C-209.04 376.48 -209.2 376.3 -209.19 376.09C-209.19 375.87 -209.01 375.7 -208.81 375.71C-208.6 375.72 -208.44 375.9 -208.44 376.11Z"/><path id="b1ww95QeTu" d="M-208.44 376.11C-208.45 376.33 -208.62 376.49 -208.83 376.49C-209.04 376.48 -209.2 376.3 -209.19 376.09C-209.19 375.87 -209.01 375.7 -208.81 375.71C-208.6 375.72 -208.44 375.9 -208.44 376.11Z"/><path id="bNMejoHDu" d="M605.16 247.61C605.16 247.87 605.37 248.08 605.63 248.08C605.9 248.08 606.11 247.87 606.11 247.61C606.11 247.35 605.9 247.14 605.63 247.14C605.37 247.14 605.16 247.35 605.16 247.61Z"/><path id="c2J5sWPoS2" d="M605.16 247.61C605.16 247.87 605.37 248.08 605.63 248.08C605.9 248.08 606.11 247.87 606.11 247.61C606.11 247.35 605.9 247.14 605.63 247.14C605.37 247.14 605.16 247.35 605.16 247.61Z"/><path id="f9B1qgU" d="M-210.78 369.17C-210.79 369.38 -210.96 369.55 -211.17 369.54C-211.38 369.54 -211.54 369.36 -211.54 369.14C-211.53 368.93 -211.36 368.76 -211.15 368.77C-210.94 368.78 -210.78 368.96 -210.78 369.17Z"/><path id="d4nwI9beZl" d="M-210.78 369.17C-210.79 369.38 -210.96 369.55 -211.17 369.54C-211.38 369.54 -211.54 369.36 -211.54 369.14C-211.53 368.93 -211.36 368.76 -211.15 368.77C-210.94 368.78 -210.78 368.96 -210.78 369.17Z"/><path id="ei3EPRPRf" d="M603.34 233.88C603.34 234.15 603.55 234.36 603.81 234.36C604.07 234.36 604.29 234.15 604.29 233.88C604.29 233.62 604.07 233.41 603.81 233.41C603.55 233.41 603.34 233.62 603.34 233.88Z"/><path id="b7plTHf0uK" d="M603.34 233.88C603.34 234.15 603.55 234.36 603.81 234.36C604.07 234.36 604.29 234.15 604.29 233.88C604.29 233.62 604.07 233.41 603.81 233.41C603.55 233.41 603.34 233.62 603.34 233.88Z"/><path id="b33C1Mg9WZ" d="M-217.45 383.67C-217.46 383.88 -217.63 384.05 -217.84 384.04C-218.05 384.04 -218.21 383.86 -218.21 383.64C-218.2 383.43 -218.03 383.26 -217.82 383.27C-217.61 383.28 -217.45 383.45 -217.45 383.67Z"/><path id="d1cYJ17Bkl" d="M-217.45 383.67C-217.46 383.88 -217.63 384.05 -217.84 384.04C-218.05 384.04 -218.21 383.86 -218.21 383.64C-218.2 383.43 -218.03 383.26 -217.82 383.27C-217.61 383.28 -217.45 383.45 -217.45 383.67Z"/></defs><g><g><g><use fill="#000" fill-opacity="0" opacity=".05" xlink:href="#d18JgoAbB"/><g><use fill-opacity="0" stroke="#000" stroke-opacity="1" stroke-width=".3" opacity=".05" xlink:href="#d18JgoAbB"/></g></g><g><use fill="#000" fill-opacity="0" opacity=".05" xlink:href="#hv37MiaLt"/><g><use fill-opacity="0" stroke="#000" stroke-opacity="1" stroke-width=".3" opacity=".05" xlink:href="#hv37MiaLt"/></g></g><g><use fill="#000" fill-opacity="0" opacity=".05" xlink:href="#c2JEQr1Ucz"/><g><use fill-opacity="0" stroke="#000" stroke-opacity="1" stroke-width=".3" opacity=".05" xlink:href="#c2JEQr1Ucz"/></g></g><g><use fill="#000" fill-opacity="0" opacity=".05" xlink:href="#b3iFLpRVVQ"/><g><use fill-opacity="0" stroke="#000" stroke-opacity="1" stroke-width=".3" opacity=".05" xlink:href="#b3iFLpRVVQ"/></g></g><g><use fill="url(#gradientc3h7mOmGo)" opacity=".05" xlink:href="#aJlz38RxZ"/><g><use fill-opacity="0" stroke="#000" stroke-opacity="1" stroke-width=".3" opacity=".05" xlink:href="#aJlz38RxZ"/></g></g><g><use fill="#000" fill-opacity="0" opacity=".05" xlink:href="#d1WS2M95J2"/><g><use fill-opacity="0" stroke="#000" stroke-opacity="1" stroke-width=".3" opacity=".05" xlink:href="#d1WS2M95J2"/></g></g><g><use fill="#000" fill-opacity="0" opacity=".05" xlink:href="#a4ZUGG0qd"/><g><use fill-opacity="0" stroke="#000" stroke-opacity="1" stroke-width=".3" opacity=".05" xlink:href="#a4ZUGG0qd"/></g></g><g><use fill="#000" fill-opacity="0" opacity=".05" xlink:href="#a28YzMQ9yC"/><g><use fill-opacity="0" stroke="#000" stroke-opacity="1" stroke-width=".3" opacity=".05" xlink:href="#a28YzMQ9yC"/></g></g><g><use fill="url(#gradienta7H0l2NSU)" opacity=".05" xlink:href="#c3dNdOiGQ"/><g><use fill-opacity="0" stroke="#000" stroke-opacity="1" stroke-width=".3" opacity=".05" xlink:href="#c3dNdOiGQ"/></g></g><g><use fill="#000" fill-opacity="0" opacity=".05" xlink:href="#bbU9BGT58"/><g><use fill-opacity="0" stroke="#000" stroke-opacity="1" stroke-width=".3" opacity=".05" xlink:href="#bbU9BGT58"/></g></g><g><use fill="#00bdff" fill-opacity="1" opacity=".05" xlink:href="#eCZfCJ1e3"/><g><use fill-opacity="0" stroke="#000" stroke-opacity="1" stroke-width=".3" opacity=".05" xlink:href="#eCZfCJ1e3"/></g></g><g><use fill="#000" fill-opacity="0" opacity=".05" xlink:href="#b12zBJBdkt"/><g><use fill-opacity="0" stroke="#000" stroke-opacity="1" stroke-width=".3" opacity=".05" xlink:href="#b12zBJBdkt"/></g></g><g><use fill="#00bdff" fill-opacity="1" opacity=".05" xlink:href="#g28BNExOk4"/><g><use fill-opacity="0" stroke="#000" stroke-opacity="1" stroke-width=".3" opacity=".05" xlink:href="#g28BNExOk4"/></g></g><g><use fill="#000" fill-opacity="0" opacity=".05" xlink:href="#cRIALqWOR"/><g><use fill-opacity="0" stroke="#000" stroke-opacity="1" stroke-width=".3" opacity=".05" xlink:href="#cRIALqWOR"/></g></g><g><use fill="#00bdff" fill-opacity="1" opacity=".05" xlink:href="#bSZtNpcRQ"/><g><use fill-opacity="0" stroke="#000" stroke-opacity="1" stroke-width=".3" opacity=".05" xlink:href="#bSZtNpcRQ"/></g></g><g><use fill="#000" fill-opacity="0" opacity=".05" xlink:href="#b8mB5Ng4m"/><g><use fill-opacity="0" stroke="#000" stroke-opacity="1" stroke-width=".3" opacity=".05" xlink:href="#b8mB5Ng4m"/></g></g><g><use fill="#00bdff" fill-opacity="1" opacity=".05" xlink:href="#cGgCS3Ls2"/><g><use fill-opacity="0" stroke="#000" stroke-opacity="1" stroke-width=".3" opacity=".05" xlink:href="#cGgCS3Ls2"/></g></g><g><use fill="#000" fill-opacity="0" opacity=".05" xlink:href="#b1ww95QeTu"/><g><use fill-opacity="0" stroke="#000" stroke-opacity="1" stroke-width=".3" opacity=".05" xlink:href="#b1ww95QeTu"/></g></g><g><use fill="#00bdff" fill-opacity="1" opacity=".05" xlink:href="#bNMejoHDu"/><g><use fill-opacity="0" stroke="#000" stroke-opacity="1" stroke-width=".3" opacity=".05" xlink:href="#bNMejoHDu"/></g></g><g><use fill="#000" fill-opacity="0" opacity=".05" xlink:href="#c2J5sWPoS2"/><g><use fill-opacity="0" stroke="#000" stroke-opacity="1" stroke-width=".3" opacity=".05" xlink:href="#c2J5sWPoS2"/></g></g><g><use fill="#00bdff" fill-opacity="1" opacity=".05" xlink:href="#f9B1qgU"/><g><use fill-opacity="0" stroke="#000" stroke-opacity="1" stroke-width=".3" opacity=".05" xlink:href="#f9B1qgU"/></g></g><g><use fill="#000" fill-opacity="0" opacity=".05" xlink:href="#d4nwI9beZl"/><g><use fill-opacity="0" stroke="#000" stroke-opacity="1" stroke-width=".3" opacity=".05" xlink:href="#d4nwI9beZl"/></g></g><g><use fill="#00bdff" fill-opacity="1" opacity=".05" xlink:href="#ei3EPRPRf"/><g><use fill-opacity="0" stroke="#000" stroke-opacity="1" stroke-width=".3" opacity=".05" xlink:href="#ei3EPRPRf"/></g></g><g><use fill="#000" fill-opacity="0" opacity=".05" xlink:href="#b7plTHf0uK"/><g><use fill-opacity="0" stroke="#000" stroke-opacity="1" stroke-width=".3" opacity=".05" xlink:href="#b7plTHf0uK"/></g></g><g><use fill="#00bdff" fill-opacity="1" opacity=".05" xlink:href="#b33C1Mg9WZ"/><g><use fill-opacity="0" stroke="#000" stroke-opacity="1" stroke-width=".3" opacity=".05" xlink:href="#b33C1Mg9WZ"/></g></g><g><use fill="#000" fill-opacity="0" opacity=".05" xlink:href="#d1cYJ17Bkl"/><g><use fill-opacity="0" stroke="#000" stroke-opacity="1" stroke-width=".3" opacity=".05" xlink:href="#d1cYJ17Bkl"/></g></g></g></g></svg>