<svg xmlns="http://www.w3.org/2000/svg" xmlns:xlink="http://www.w3.org/1999/xlink" width="640" height="640" preserveAspectRatio="xMidYMid meet" version="1.1" viewBox="0 0 640 640"><defs><path id="b24fHF7TWL" d="M449.39 637.9C272.58 628.99 243.47 532.26 129.47 499.2C74.67 483.3 -2.99 502.3 -46.3 526.43"/><path id="fvIBBk0gk" d="M449.39 637.9C272.58 628.99 243.47 532.26 129.47 499.2C74.67 483.3 -2.99 502.3 -46.3 526.43"/><path id="crnAPKPEN" d="M716.96 599.47C716.96 599.47 626.42 614.22 542.8 611.26C471.21 608.73 373.34 564.99 312.49 558.42C230.46 549.55 162.66 594.78 13.17 562.17C-33.66 551.95 -92.14 515.96 -92.14 515.96"/><path id="ama0QUCp3" d="M716.96 599.47C716.96 599.47 626.42 614.22 542.8 611.26C471.21 608.73 373.34 564.99 312.49 558.42C230.46 549.55 162.66 594.78 13.17 562.17C-33.66 551.95 -92.14 515.96 -92.14 515.96"/><path id="m2EnQ79SHm" d="M-84.95 474.46C-85.03 485.67 -85.47 541.7 -86.25 642.56C-5.13 643.62 643.84 652.07 724.97 653.13C725.17 627.79 725.27 613.71 725.3 610.89C690.14 626.17 632.61 647.57 551.28 646.51C328.25 643.61 236.74 484.47 89.17 455.26C14.78 441.2 -38.34 468.42 -84.95 474.46Z"/><linearGradient id="gradienta5s9cAOPzF" x1="340.21" x2="300.08" y1="526.47" y2="600.63" gradientUnits="userSpaceOnUse"><stop style="stop-color:#000;stop-opacity:1" offset="0%"/><stop style="stop-color:#001d99;stop-opacity:0" offset="100%"/></linearGradient><path id="l1rdzWKi4S" d="M-92.95 470.46C-93.03 481.66 -93.47 537.7 -94.25 638.56C-13.13 639.62 635.84 648.07 716.97 649.13C717.17 623.79 717.27 609.71 717.3 606.89C682.14 622.17 624.61 643.58 543.28 642.51C320.25 639.61 228.74 480.47 81.17 451.26C6.78 437.2 -46.34 464.41 -92.95 470.46Z"/><path id="aVOJzggmj" d="M227.67 564.49C152.05 563.41 106.01 546.15 80.32 537.15C30.92 516.12 -58.96 465.85 -93.48 432.81C-93.49 446.56 -93.61 515.3 -93.81 639.05C-12.69 639.61 636.34 644.07 717.46 644.62C717.52 612.07 717.55 593.99 717.56 590.37C687.22 590.16 617.15 590.57 543.86 569.38C506.46 558.57 476.47 545.52 440.82 538.98C383.55 528.24 322.07 565.86 227.67 564.49Z"/><path id="bEXnzgwVm" d="M5.73 506.51C5.72 506.72 5.55 506.89 5.34 506.88C5.13 506.88 4.97 506.7 4.98 506.48C4.98 506.27 5.16 506.1 5.36 506.11C5.57 506.12 5.74 506.29 5.73 506.51Z"/><path id="bBvZYdHPS" d="M-3.28 514.03C-3.29 514.25 -3.46 514.42 -3.67 514.41C-3.88 514.4 -4.04 514.22 -4.03 514.01C-4.03 513.79 -3.85 513.63 -3.65 513.63C-3.44 513.64 -3.27 513.82 -3.28 514.03Z"/><path id="a3wE0Wyb" d="M-3.28 514.03C-3.29 514.25 -3.46 514.42 -3.67 514.41C-3.88 514.4 -4.04 514.22 -4.03 514.01C-4.03 513.79 -3.85 513.63 -3.65 513.63C-3.44 513.64 -3.27 513.82 -3.28 514.03Z"/><path id="aeYlA0hBe" d="M-208.44 376.11C-208.45 376.33 -208.62 376.49 -208.83 376.49C-209.04 376.48 -209.2 376.3 -209.19 376.09C-209.19 375.87 -209.01 375.7 -208.81 375.71C-208.6 375.72 -208.44 375.9 -208.44 376.11Z"/><path id="bcC8eAyw3" d="M-208.44 376.11C-208.45 376.33 -208.62 376.49 -208.83 376.49C-209.04 376.48 -209.2 376.3 -209.19 376.09C-209.19 375.87 -209.01 375.7 -208.81 375.71C-208.6 375.72 -208.44 375.9 -208.44 376.11Z"/><path id="b20ORed4Z" d="M-210.78 369.17C-210.79 369.38 -210.96 369.55 -211.17 369.54C-211.38 369.54 -211.54 369.36 -211.54 369.14C-211.53 368.93 -211.36 368.76 -211.15 368.77C-210.94 368.78 -210.78 368.96 -210.78 369.17Z"/><path id="a4LcsWG43y" d="M-210.78 369.17C-210.79 369.38 -210.96 369.55 -211.17 369.54C-211.38 369.54 -211.54 369.36 -211.54 369.14C-211.53 368.93 -211.36 368.76 -211.15 368.77C-210.94 368.78 -210.78 368.96 -210.78 369.17Z"/><path id="b1MPE1EFXN" d="M-217.45 383.67C-217.46 383.88 -217.63 384.05 -217.84 384.04C-218.05 384.04 -218.21 383.86 -218.21 383.64C-218.2 383.43 -218.03 383.26 -217.82 383.27C-217.61 383.28 -217.45 383.45 -217.45 383.67Z"/><path id="d2sf1hinZU" d="M-217.45 383.67C-217.46 383.88 -217.63 384.05 -217.84 384.04C-218.05 384.04 -218.21 383.86 -218.21 383.64C-218.2 383.43 -218.03 383.26 -217.82 383.27C-217.61 383.28 -217.45 383.45 -217.45 383.67Z"/><path id="a4jZoyrlaT" d="M307.84 647.53C232.16 644.11 185.81 614.14 159.96 598.46C110.18 562.06 19.42 475.64 -15.67 419.37C-15.46 442.49 -14.43 558.06 -12.57 766.1C68.61 768.75 718.04 789.94 799.22 792.59C798.73 737.86 798.46 707.47 798.41 701.38C768.05 700.39 697.96 699.6 624.27 662.43C586.68 643.46 556.45 620.88 520.67 609.14C463.2 589.88 402.31 651.82 307.84 647.53Z"/><path id="bupt48juW" d="M322.19 609.55C246.6 609.29 200.73 597.39 175.13 591.19C125.95 576.65 36.56 541.68 2.37 518.54C2.22 528.27 1.45 576.9 0.07 664.44C81.17 664.29 730.01 663.11 811.11 662.96C811.47 639.93 811.68 627.14 811.72 624.58C781.39 624.64 711.34 625.39 638.26 610.9C600.98 603.49 571.12 594.46 535.53 590.08C478.38 582.86 416.55 609.88 322.19 609.55Z"/></defs><g><g><g><use fill="#8a8a8a" fill-opacity="1" opacity=".06" xlink:href="#b24fHF7TWL"/><g><use fill-opacity="0" stroke="#000" stroke-opacity="0" stroke-width="1" opacity=".06" xlink:href="#b24fHF7TWL"/></g></g><g><use fill="#000" fill-opacity="0" opacity=".06" xlink:href="#fvIBBk0gk"/><g><use fill-opacity="0" stroke="#000" stroke-opacity="1" stroke-width=".5" opacity=".06" xlink:href="#fvIBBk0gk"/></g></g><g><use fill="#8a8a8a" fill-opacity="1" opacity=".06" xlink:href="#crnAPKPEN"/><g><use fill-opacity="0" stroke="#000" stroke-opacity="0" stroke-width=".5" opacity=".06" xlink:href="#crnAPKPEN"/></g></g><g><use fill="#000" fill-opacity="0" opacity=".06" xlink:href="#ama0QUCp3"/><g><use fill-opacity="0" stroke="#000" stroke-opacity="1" stroke-width=".3" opacity=".06" xlink:href="#ama0QUCp3"/></g></g><g><use fill="url(#gradienta5s9cAOPzF)" opacity=".06" xlink:href="#m2EnQ79SHm"/><g><use fill-opacity="0" stroke="#000" stroke-opacity="0" stroke-width="1" opacity=".06" xlink:href="#m2EnQ79SHm"/></g></g><g><use fill="#000" fill-opacity="0" opacity=".04" xlink:href="#l1rdzWKi4S"/><g><use fill-opacity="0" stroke="#000" stroke-opacity="1" stroke-width=".5" opacity=".04" xlink:href="#l1rdzWKi4S"/></g></g><g><use fill="#8a8a8a" fill-opacity="1" opacity=".04" xlink:href="#aVOJzggmj"/><g><use fill-opacity="0" stroke="#000" stroke-opacity="0" stroke-width="1" opacity=".04" xlink:href="#aVOJzggmj"/></g></g><g><use fill="#8a8a8a" fill-opacity="1" opacity=".06" xlink:href="#bEXnzgwVm"/><g><use fill-opacity="0" stroke="#000" stroke-opacity="0" stroke-width="1" opacity=".06" xlink:href="#bEXnzgwVm"/></g></g><g><use fill="#8a8a8a" fill-opacity="1" opacity=".06" xlink:href="#bBvZYdHPS"/><g><use fill-opacity="0" stroke="#000" stroke-opacity="0" stroke-width="1" opacity=".06" xlink:href="#bBvZYdHPS"/></g></g><g><use fill="#000" fill-opacity="0" opacity=".06" xlink:href="#a3wE0Wyb"/><g><use fill-opacity="0" stroke="#000" stroke-opacity="1" stroke-width="1" opacity=".06" xlink:href="#a3wE0Wyb"/></g></g><g><use fill="#8a8a8a" fill-opacity="1" opacity="1" xlink:href="#aeYlA0hBe"/><g><use fill-opacity="0" stroke="#000" stroke-opacity="0" stroke-width="1" opacity="1" xlink:href="#aeYlA0hBe"/></g></g><g><use fill="#000" fill-opacity="0" opacity="1" xlink:href="#bcC8eAyw3"/><g><use fill-opacity="0" stroke="#000" stroke-opacity="1" stroke-width="1" opacity="1" xlink:href="#bcC8eAyw3"/></g></g><g><use fill="#8a8a8a" fill-opacity="1" opacity="1" xlink:href="#b20ORed4Z"/><g><use fill-opacity="0" stroke="#000" stroke-opacity="0" stroke-width="1" opacity="1" xlink:href="#b20ORed4Z"/></g></g><g><use fill="#000" fill-opacity="0" opacity="1" xlink:href="#a4LcsWG43y"/><g><use fill-opacity="0" stroke="#000" stroke-opacity="1" stroke-width="1" opacity="1" xlink:href="#a4LcsWG43y"/></g></g><g><use fill="#8a8a8a" fill-opacity="1" opacity="1" xlink:href="#b1MPE1EFXN"/><g><use fill-opacity="0" stroke="#000" stroke-opacity="0" stroke-width="1" opacity="1" xlink:href="#b1MPE1EFXN"/></g></g><g><use fill="#000" fill-opacity="0" opacity="1" xlink:href="#d2sf1hinZU"/><g><use fill-opacity="0" stroke="#000" stroke-opacity="1" stroke-width="1" opacity="1" xlink:href="#d2sf1hinZU"/></g></g><g><use fill="#000" fill-opacity="0" opacity=".03" xlink:href="#a4jZoyrlaT"/><g><use fill-opacity="0" stroke="#000" stroke-opacity="1" stroke-width=".3" opacity=".03" xlink:href="#a4jZoyrlaT"/></g></g><g><use fill="#000" fill-opacity="0" opacity=".04" xlink:href="#bupt48juW"/><g><use fill-opacity="0" stroke="#000" stroke-opacity="1" stroke-width=".3" opacity=".04" xlink:href="#bupt48juW"/></g></g></g></g></svg>