<svg xmlns="http://www.w3.org/2000/svg" xmlns:xlink="http://www.w3.org/1999/xlink" width="640" height="640" preserveAspectRatio="xMidYMid meet" version="1.1" viewBox="0 0 640 640"><defs><path id="d1Hjr0XNIu" d="M449.39 637.9C272.58 628.99 243.47 532.26 129.47 499.2C74.67 483.3 -2.99 502.3 -46.3 526.43"/><path id="cdhH5X1ua" d="M716.96 599.47C716.96 599.47 626.42 614.22 542.8 611.26C471.21 608.73 373.34 564.99 312.49 558.42C230.46 549.55 162.66 594.78 13.17 562.17C-33.66 551.95 -92.14 515.96 -92.14 515.96"/><path id="a2Oj0BKKa2" d="M83.43 467.17C9.37 451.45 -44.34 477.47 -91.08 482.47C-91.41 493.67 -93.1 549.68 -96.14 650.5L714.64 679.21C715.41 653.88 715.83 639.81 715.92 636.99C680.43 651.48 622.43 671.59 541.15 668.71C318.24 660.82 230.31 499.67 83.43 467.17Z"/><linearGradient id="gradientb16vv1grtg" x1="332.81" x2="291.03" y1="543.98" y2="617.22" gradientUnits="userSpaceOnUse"><stop style="stop-color:#000;stop-opacity:1" offset="0%"/><stop style="stop-color:#001d99;stop-opacity:0" offset="100%"/></linearGradient><path id="a3JzxFWSW3" d="M440.76 537.72C383.82 525.35 321.29 561.2 226.97 557.14C151.41 553.9 105.88 535.34 80.46 525.61C31.68 503.18 -56.73 450.36 -90.29 416.35C-90.7 430.1 -92.78 498.81 -96.51 622.5L714.28 651.21C715.26 618.67 715.81 600.6 715.92 596.98C685.6 595.91 615.55 594.32 542.89 571.05C505.82 559.17 476.21 545.27 440.76 537.72Z"/><path id="a2bTGsNjxv" d="M5.36 506.11C5.57 506.12 5.74 506.29 5.73 506.51C5.72 506.72 5.55 506.89 5.34 506.88C5.13 506.88 4.97 506.7 4.98 506.48C4.98 506.27 5.16 506.1 5.36 506.11Z"/><path id="e12VF17vJ9" d="M-3.65 513.63C-3.44 513.64 -3.27 513.82 -3.28 514.03C-3.29 514.25 -3.46 514.42 -3.67 514.41C-3.88 514.4 -4.04 514.22 -4.03 514.01C-4.03 513.79 -3.85 513.63 -3.65 513.63Z"/><path id="g10RVhCZtD" d="M600.83 242.26C600.57 242.26 600.35 242.47 600.35 242.73C600.35 242.99 600.57 243.2 600.83 243.2C601.09 243.2 601.3 242.99 601.3 242.73C601.3 242.47 601.09 242.26 600.83 242.26Z"/><path id="b1SsUkud5H" d="M-208.81 375.71C-208.6 375.72 -208.44 375.9 -208.44 376.11C-208.45 376.33 -208.62 376.49 -208.83 376.49C-209.04 376.48 -209.2 376.3 -209.19 376.09C-209.19 375.87 -209.01 375.7 -208.81 375.71Z"/><path id="flbXNf4PK" d="M605.63 247.14C605.37 247.14 605.16 247.35 605.16 247.61C605.16 247.87 605.37 248.08 605.63 248.08C605.9 248.08 606.11 247.87 606.11 247.61C606.11 247.35 605.9 247.14 605.63 247.14Z"/><path id="aKbf9k0" d="M-211.15 368.77C-210.94 368.78 -210.78 368.96 -210.78 369.17C-210.79 369.38 -210.96 369.55 -211.17 369.54C-211.38 369.54 -211.54 369.36 -211.54 369.14C-211.53 368.93 -211.36 368.76 -211.15 368.77Z"/><path id="bSafsQGO6" d="M603.81 233.41C603.55 233.41 603.34 233.62 603.34 233.88C603.34 234.15 603.55 234.36 603.81 234.36C604.07 234.36 604.29 234.15 604.29 233.88C604.29 233.62 604.07 233.41 603.81 233.41Z"/><path id="cgHAdwD0n" d="M-217.82 383.27C-217.61 383.28 -217.45 383.45 -217.45 383.67C-217.46 383.88 -217.63 384.05 -217.84 384.04C-218.05 384.04 -218.21 383.86 -218.21 383.64C-218.2 383.43 -218.03 383.26 -217.82 383.27Z"/></defs><g><g><g><use fill="#8a8a8a" fill-opacity="1" opacity=".06" xlink:href="#d1Hjr0XNIu"/><g><use fill-opacity="0" stroke="#000" stroke-opacity="1" stroke-width="2" opacity=".06" xlink:href="#d1Hjr0XNIu"/></g></g><g><use fill="#8a8a8a" fill-opacity="1" opacity=".06" xlink:href="#cdhH5X1ua"/><g><use fill-opacity="0" stroke="#000" stroke-opacity="1" stroke-width="2" opacity=".06" xlink:href="#cdhH5X1ua"/></g></g><g><use fill="url(#gradientb16vv1grtg)" opacity=".06" xlink:href="#a2Oj0BKKa2"/><g><use fill-opacity="0" stroke="#000" stroke-opacity="1" stroke-width="1" opacity=".06" xlink:href="#a2Oj0BKKa2"/></g></g><g><use fill="#8a8a8a" fill-opacity="1" opacity=".06" xlink:href="#a3JzxFWSW3"/><g><use fill-opacity="0" stroke="#000" stroke-opacity="1" stroke-width="1" opacity=".06" xlink:href="#a3JzxFWSW3"/></g></g><g><use fill="#8a8a8a" fill-opacity="1" opacity=".06" xlink:href="#a2bTGsNjxv"/><g><use fill-opacity="0" stroke="#000" stroke-opacity="1" stroke-width="1" opacity=".06" xlink:href="#a2bTGsNjxv"/></g></g><g><use fill="#8a8a8a" fill-opacity="1" opacity=".06" xlink:href="#e12VF17vJ9"/><g><use fill-opacity="0" stroke="#000" stroke-opacity="1" stroke-width="1" opacity=".06" xlink:href="#e12VF17vJ9"/></g></g><g><use fill="#8a8a8a" fill-opacity="1" opacity=".06" xlink:href="#g10RVhCZtD"/><g><use fill-opacity="0" stroke="#000" stroke-opacity="1" stroke-width="1" opacity=".06" xlink:href="#g10RVhCZtD"/></g></g><g><use fill="#8a8a8a" fill-opacity="1" opacity=".06" xlink:href="#b1SsUkud5H"/><g><use fill-opacity="0" stroke="#000" stroke-opacity="1" stroke-width="1" opacity=".06" xlink:href="#b1SsUkud5H"/></g></g><g><use fill="#8a8a8a" fill-opacity="1" opacity=".06" xlink:href="#flbXNf4PK"/><g><use fill-opacity="0" stroke="#000" stroke-opacity="1" stroke-width="1" opacity=".06" xlink:href="#flbXNf4PK"/></g></g><g><use fill="#8a8a8a" fill-opacity="1" opacity=".06" xlink:href="#aKbf9k0"/><g><use fill-opacity="0" stroke="#000" stroke-opacity="1" stroke-width="1" opacity=".06" xlink:href="#aKbf9k0"/></g></g><g><use fill="#8a8a8a" fill-opacity="1" opacity=".06" xlink:href="#bSafsQGO6"/><g><use fill-opacity="0" stroke="#000" stroke-opacity="1" stroke-width="1" opacity=".06" xlink:href="#bSafsQGO6"/></g></g><g><use fill="#8a8a8a" fill-opacity="1" opacity=".06" xlink:href="#cgHAdwD0n"/><g><use fill-opacity="0" stroke="#000" stroke-opacity="1" stroke-width="1" opacity=".06" xlink:href="#cgHAdwD0n"/></g></g></g></g></svg>